<mxfile host="app.diagrams.net" modified="2023-10-12T15:44:29.252Z" agent="Mozilla/5.0 (Windows NT 10.0; Win64; x64) AppleWebKit/537.36 (KHTML, like Gecko) Chrome/117.0.0.0 Safari/537.36 Edg/117.0.2045.60" etag="Se1KLiSaa8JiaHqplkkT" version="22.0.4" type="github">
  <diagram name="Page-1" id="c7558073-3199-34d8-9f00-42111426c3f3">
    <mxGraphModel dx="1002" dy="535" grid="1" gridSize="10" guides="1" tooltips="1" connect="1" arrows="1" fold="1" page="1" pageScale="1" pageWidth="826" pageHeight="1169" background="none" math="0" shadow="0">
      <root>
        <mxCell id="0" />
        <mxCell id="1" parent="0" />
        <mxCell id="eMdHMRh1nKxnSkWNnK9Y-111" value="" style="edgeStyle=orthogonalEdgeStyle;rounded=0;orthogonalLoop=1;jettySize=auto;html=1;" edge="1" parent="1" source="eMdHMRh1nKxnSkWNnK9Y-96" target="eMdHMRh1nKxnSkWNnK9Y-102">
          <mxGeometry relative="1" as="geometry" />
        </mxCell>
        <mxCell id="eMdHMRh1nKxnSkWNnK9Y-96" value="Project Voltwins" style="rounded=1;whiteSpace=wrap;html=1;strokeWidth=2;fontFamily=Verdana;fontSize=13;fontStyle=1;fontColor=#FFFFFF;strokeColor=#009999;fillStyle=auto;fillColor=#009999;" vertex="1" parent="1">
          <mxGeometry x="325" y="440" width="150" height="80" as="geometry" />
        </mxCell>
        <mxCell id="eMdHMRh1nKxnSkWNnK9Y-98" value="Storyline - Cốt truyện" style="rounded=1;whiteSpace=wrap;html=1;strokeWidth=2;fillColor=#009999;strokeColor=#0e8088;fontColor=#FFFFFF;" vertex="1" parent="1">
          <mxGeometry x="620" y="90" width="140" height="40" as="geometry" />
        </mxCell>
        <mxCell id="eMdHMRh1nKxnSkWNnK9Y-118" value="" style="edgeStyle=orthogonalEdgeStyle;rounded=0;orthogonalLoop=1;jettySize=auto;html=1;fontFamily=Helvetica;fontSize=13;fontColor=#009999;" edge="1" parent="1" source="eMdHMRh1nKxnSkWNnK9Y-102" target="eMdHMRh1nKxnSkWNnK9Y-110">
          <mxGeometry relative="1" as="geometry" />
        </mxCell>
        <mxCell id="eMdHMRh1nKxnSkWNnK9Y-102" value="Selector&lt;br&gt;&lt;span style=&quot;font-weight: normal;&quot;&gt;(Đối tượng)&lt;/span&gt;" style="rounded=1;whiteSpace=wrap;html=1;fontSize=13;strokeColor=#009999;fontColor=#009999;strokeWidth=2;fontStyle=1;fillStyle=hatch;" vertex="1" parent="1">
          <mxGeometry x="340" y="570" width="120" height="60" as="geometry" />
        </mxCell>
        <mxCell id="eMdHMRh1nKxnSkWNnK9Y-116" style="edgeStyle=orthogonalEdgeStyle;rounded=0;orthogonalLoop=1;jettySize=auto;html=1;entryX=0.5;entryY=0;entryDx=0;entryDy=0;fontFamily=Helvetica;fontSize=13;fontColor=#009999;" edge="1" parent="1" source="eMdHMRh1nKxnSkWNnK9Y-110" target="eMdHMRh1nKxnSkWNnK9Y-114">
          <mxGeometry relative="1" as="geometry" />
        </mxCell>
        <mxCell id="eMdHMRh1nKxnSkWNnK9Y-117" style="edgeStyle=orthogonalEdgeStyle;rounded=0;orthogonalLoop=1;jettySize=auto;html=1;exitX=1;exitY=0.5;exitDx=0;exitDy=0;entryX=0.5;entryY=0;entryDx=0;entryDy=0;fontFamily=Helvetica;fontSize=13;fontColor=#009999;" edge="1" parent="1" source="eMdHMRh1nKxnSkWNnK9Y-110" target="eMdHMRh1nKxnSkWNnK9Y-115">
          <mxGeometry relative="1" as="geometry" />
        </mxCell>
        <mxCell id="eMdHMRh1nKxnSkWNnK9Y-110" value="Class&lt;br&gt;&lt;span style=&quot;font-weight: normal;&quot;&gt;(Trường phái)&lt;/span&gt;" style="rounded=1;whiteSpace=wrap;html=1;fontSize=13;strokeColor=#009999;fontColor=#009999;strokeWidth=2;fontStyle=1;fillStyle=hatch;" vertex="1" parent="1">
          <mxGeometry x="340" y="700" width="120" height="60" as="geometry" />
        </mxCell>
        <mxCell id="eMdHMRh1nKxnSkWNnK9Y-114" value="&lt;b&gt;Genesis Select&lt;/b&gt;&lt;br&gt;( Nhóm Sáng Thế)" style="rounded=1;whiteSpace=wrap;html=1;fontSize=13;strokeColor=#009999;fontColor=#009999;strokeWidth=2;fontStyle=0;fillStyle=hatch;" vertex="1" parent="1">
          <mxGeometry x="160" y="820" width="160" height="50" as="geometry" />
        </mxCell>
        <mxCell id="eMdHMRh1nKxnSkWNnK9Y-115" value="&lt;b&gt;Alternative Select&lt;/b&gt;&lt;br&gt;( Nhóm Hoán Đổi )" style="rounded=1;whiteSpace=wrap;html=1;fillStyle=hatch;strokeColor=#009999;strokeWidth=2;align=center;verticalAlign=middle;fontFamily=Helvetica;fontSize=13;fontColor=#009999;fillColor=default;" vertex="1" parent="1">
          <mxGeometry x="480" y="820" width="160" height="50" as="geometry" />
        </mxCell>
      </root>
    </mxGraphModel>
  </diagram>
</mxfile>
